<?xml version="1.0" encoding="utf-8"?>
<!-- Generator: Adobe Illustrator 27.5.0, SVG Export Plug-In . SVG Version: 6.00 Build 0)  -->
<svg version="1.1" xmlns="http://www.w3.org/2000/svg" xmlns:xlink="http://www.w3.org/1999/xlink" x="0px" y="0px"
	 viewBox="0 0 2200 2200" style="enable-background:new 0 0 2200 2200;" xml:space="preserve">
<g id="background">
	<rect style="fill:#FFFFFF;" width="2200" height="2200"/>
</g>
<g id="Objects">
	<g>
		<path style="fill:#2A3E5B;" d="M1740.99,1966.529c-7.16-5.98-14.21-13.16-20.04-20.04l-426.17-496.44
			c29.45-21.66,57.32-45.61,83.5-71.79c26.18-26.18,50.13-54.05,71.78-83.49l496.45,426.16
			C2103.91,1863.538,1909.39,2096.418,1740.99,1966.529z"/>
		<path style="fill:#2A3E5B;" d="M866.97,1538.477c-90.632,0-178.581-17.763-261.405-52.794
			c-79.972-33.825-151.782-82.237-213.436-143.892c-61.655-61.654-110.067-133.464-143.892-213.436
			c-35.031-82.824-52.794-170.773-52.794-261.405s17.763-178.581,52.794-261.405c33.825-79.971,82.238-151.782,143.892-213.436
			c61.654-61.654,133.464-110.066,213.436-143.892c82.824-35.031,170.773-52.794,261.405-52.794s178.581,17.763,261.405,52.794
			c79.972,33.825,151.782,82.238,213.436,143.892c61.655,61.654,110.067,133.465,143.892,213.436
			c35.032,82.824,52.794,170.773,52.794,261.405s-17.763,178.581-52.794,261.405c-33.825,79.972-82.237,151.782-143.892,213.436
			c-61.654,61.655-133.464,110.067-213.436,143.892C1045.551,1520.715,957.602,1538.477,866.97,1538.477z M866.97,303.532
			c-76.084,0-149.865,14.889-219.291,44.254c-67.085,28.374-127.345,69.006-179.105,120.767
			c-51.761,51.761-92.393,112.02-120.767,179.105c-29.365,69.426-44.254,143.206-44.254,219.291s14.889,149.865,44.254,219.291
			c28.375,67.085,69.007,127.345,120.767,179.105s112.02,92.393,179.105,120.767c69.426,29.365,143.206,44.254,219.291,44.254
			s149.865-14.889,219.291-44.254c67.085-28.375,127.345-69.007,179.105-120.767c51.761-51.761,92.393-112.02,120.767-179.105
			c29.365-69.426,44.254-143.206,44.254-219.291s-14.889-149.865-44.254-219.291c-28.375-67.085-69.007-127.345-120.767-179.105
			c-51.76-51.761-112.02-92.393-179.105-120.767C1016.835,318.421,943.055,303.532,866.97,303.532z"/>
		<path style="fill:#5DAFF9;" d="M1285.702,690.045c-22.891-54.12-55.655-102.718-97.382-144.445
			c-41.727-41.727-90.325-74.491-144.445-97.382c-56.047-23.706-115.566-35.726-176.904-35.726s-120.857,12.02-176.904,35.726
			c-54.12,22.891-102.718,55.655-144.445,97.382c-41.727,41.727-74.49,90.325-97.381,144.445
			c-23.706,56.047-35.726,115.566-35.726,176.904s12.02,120.857,35.726,176.904c22.891,54.12,55.655,102.719,97.381,144.445
			c41.728,41.727,90.325,74.491,144.445,97.382c56.047,23.706,115.566,35.726,176.904,35.726s120.857-12.02,176.904-35.726
			c54.12-22.891,102.719-55.655,144.445-97.382s74.491-90.325,97.382-144.445c23.706-56.047,35.726-115.566,35.726-176.904
			S1309.408,746.092,1285.702,690.045z M1260.312,836.95h-141.801c-1.86-52.934-8.628-104.15-19.893-151.748
			c33.483-9.209,66.453-20.449,98.831-33.718c12.771,19.552,23.809,40.225,32.992,61.935
			C1247.119,752.848,1257.126,794.28,1260.312,836.95z M896.97,477.65c12.716,4.394,25.281,11.584,37.583,21.529
			c22.908,18.519,44.648,46.716,62.87,81.542c9.787,18.707,18.486,38.978,26.047,60.522c-41.48,8.08-83.701,12.903-126.5,14.438
			V477.65z M799.387,499.179c12.302-9.945,24.867-17.135,37.583-21.529v178.031c-42.799-1.535-85.02-6.358-126.5-14.438
			c7.561-21.544,16.26-41.815,26.047-60.522C754.739,545.895,776.479,517.698,799.387,499.179z M836.97,715.711V836.95H675.453
			c1.813-48.301,8.006-94.822,18.19-137.873C740.597,708.532,788.442,714.09,836.97,715.711z M836.97,896.95v121.239
			c-48.528,1.621-96.372,7.179-143.328,16.634c-10.183-43.05-16.377-89.572-18.19-137.873H836.97z M836.97,1078.219v178.031
			c-12.716-4.394-25.281-11.584-37.583-21.53c-22.908-18.519-44.648-46.715-62.87-81.542c-9.787-18.706-18.486-38.978-26.047-60.522
			C751.95,1084.576,794.171,1079.753,836.97,1078.219z M934.553,1234.72c-12.302,9.945-24.867,17.135-37.583,21.53v-178.031
			c42.799,1.535,85.02,6.358,126.5,14.438c-7.561,21.544-16.26,41.815-26.047,60.522
			C979.202,1188.005,957.461,1216.202,934.553,1234.72z M896.97,1018.189V896.95h161.517c-1.813,48.301-8.006,94.823-18.19,137.873
			C993.342,1025.367,945.498,1019.809,896.97,1018.189z M896.97,836.95V715.711c48.528-1.621,96.372-7.179,143.328-16.634
			c10.183,43.05,16.377,89.572,18.19,137.873H896.97z M1145.893,588.027c4.593,4.593,9.058,9.283,13.399,14.064
			c-25.352,9.79-51.082,18.26-77.147,25.406c-8.992-26.597-19.533-51.608-31.558-74.592c-9.527-18.209-19.793-34.795-30.736-49.697
			c0.217,0.091,0.435,0.179,0.651,0.271C1067.469,523.345,1109.658,551.791,1145.893,588.027z M713.439,503.479
			c0.217-0.092,0.435-0.18,0.651-0.271c-10.943,14.903-21.209,31.489-30.736,49.697c-12.025,22.984-22.567,47.995-31.558,74.592
			c-26.065-7.147-51.795-15.616-77.147-25.407c4.341-4.781,8.806-9.472,13.398-14.064
			C624.283,551.791,666.471,523.345,713.439,503.479z M536.492,651.483c32.377,13.269,65.348,24.51,98.83,33.719
			c-11.265,47.598-18.033,98.814-19.893,151.748H473.628c3.186-42.669,13.194-84.102,29.871-123.531
			C512.682,691.708,523.721,671.035,536.492,651.483z M473.628,896.95H615.43c1.86,52.934,8.628,104.151,19.893,151.748
			c-33.482,9.208-66.453,20.449-98.831,33.718c-12.771-19.551-23.809-40.225-32.992-61.935
			C486.822,981.051,476.814,939.619,473.628,896.95z M588.047,1145.873c-4.593-4.593-9.058-9.283-13.399-14.064
			c25.352-9.79,51.082-18.259,77.147-25.406c8.992,26.597,19.533,51.608,31.558,74.592c9.527,18.209,19.793,34.795,30.736,49.698
			c-0.217-0.091-0.435-0.179-0.651-0.271C666.471,1210.555,624.284,1182.109,588.047,1145.873z M1020.501,1230.42
			c-0.217,0.092-0.435,0.179-0.651,0.271c10.943-14.903,21.209-31.489,30.736-49.698c12.025-22.984,22.567-47.995,31.558-74.592
			c26.065,7.147,51.796,15.616,77.147,25.406c-4.341,4.781-8.806,9.471-13.399,14.064
			C1109.658,1182.109,1067.469,1210.555,1020.501,1230.42z M1197.449,1082.416c-32.378-13.269-65.348-24.51-98.831-33.718
			c11.265-47.598,18.033-98.814,19.893-151.748h141.801c-3.186,42.669-13.193,84.102-29.871,123.531
			C1221.259,1042.191,1210.22,1062.865,1197.449,1082.416z"/>
	</g>
</g>
</svg>
